<svg id="surface8" xmlns="http://www.w3.org/2000/svg" width="28.323" height="26.832" viewBox="0 0 28.323 26.832">
  <path id="Path_7112" data-name="Path 7112" d="M20.236,64v7.453H18V64Zm17.888,0v7.453H40.36V64Z" transform="translate(-15.019 -44.621)" fill="#bf8128"/>
  <path id="Path_7113" data-name="Path 7113" d="M38.323,61.727H10V58H38.323Z" transform="translate(-10 -40.857)" fill="#ce8b2b"/>
  <path id="Path_7114" data-name="Path 7114" d="M18,12h4.472V29.143H18Z" transform="translate(-15.019 -12)" fill="#ce8b2b"/>
  <path id="Path_7115" data-name="Path 7115" d="M18,12h1.491V29.143H18Z" transform="translate(-15.019 -12)" fill="#bf8128"/>
  <path id="Path_7116" data-name="Path 7116" d="M34,12h4.472V29.143H34Z" transform="translate(-25.056 -12)" fill="#aa4230"/>
  <path id="Path_7117" data-name="Path 7117" d="M34,12h1.491V29.143H34Z" transform="translate(-25.056 -12)" fill="#9e3d2c"/>
  <path id="Path_7118" data-name="Path 7118" d="M46,24h4.472V36.671H46Z" transform="translate(-32.584 -19.528)" fill="#ce8b2b"/>
  <path id="Path_7119" data-name="Path 7119" d="M46,24h1.491V36.671H46Z" transform="translate(-32.584 -19.528)" fill="#bf8128"/>
  <path id="Path_7120" data-name="Path 7120" d="M22.472,19.491H18V18h4.472Zm0,9.689H18v1.491h4.472Z" transform="translate(-15.019 -15.764)" fill="#d69538"/>
  <path id="Path_7121" data-name="Path 7121" d="M19.491,19.491H18V18h1.491Zm0,9.689H18v1.491h1.491Z" transform="translate(-15.019 -15.764)" fill="#cf8f34"/>
  <path id="Path_7122" data-name="Path 7122" d="M38.472,19.491H34V18h4.472Zm0,9.689H34v1.491h4.472Z" transform="translate(-25.056 -15.764)" fill="#b74936"/>
  <path id="Path_7123" data-name="Path 7123" d="M35.491,19.491H34V18h1.491Zm0,9.689H34v1.491h1.491Z" transform="translate(-25.056 -15.764)" fill="#a54434"/>
  <path id="Path_7124" data-name="Path 7124" d="M50.472,31.491H46V30h4.472Zm0,5.217H46V38.2h4.472Z" transform="translate(-32.584 -23.292)" fill="#d69538"/>
  <path id="Path_7125" data-name="Path 7125" d="M47.491,31.491H46V30h1.491Zm0,5.217H46V38.2h1.491Z" transform="translate(-32.584 -23.292)" fill="#cf8f34"/>
  <path id="Path_7126" data-name="Path 7126" d="M66.2,33.925l-4.472,1.491L58,23.491,62.472,22Z" transform="translate(-40.112 -18.273)" fill="#aa4230"/>
  <path id="Path_7127" data-name="Path 7127" d="M59.472,24.684,58,25.174,61.727,37.1l1.473-.491Z" transform="translate(-40.112 -19.957)" fill="#9e3d2c"/>
  <path id="Path_7128" data-name="Path 7128" d="M62.1,36.518l-.447-1.43,4.463-1.521L66.564,35Zm-2.457-7.862.447,1.43,4.453-1.552L64.1,27.105Z" transform="translate(-41.144 -21.476)" fill="#b74936"/>
  <path id="Path_7129" data-name="Path 7129" d="M60.091,31.835l-.149-.477-.3-.952,1.466-.511.447,1.43Zm3.034,4.5-1.47.5.224.715.223.713,1.47-.5Z" transform="translate(-41.144 -23.226)" fill="#a54434"/>
</svg>
