<svg id="surface5" xmlns="http://www.w3.org/2000/svg" width="32.049" height="32.794" viewBox="0 0 32.049 32.794">
  <path id="Path_7069" data-name="Path 7069" d="M10,47.888V30H38.322V47.888a2.981,2.981,0,0,1-2.981,2.981H12.981A2.981,2.981,0,0,1,10,47.888" transform="translate(-10 -21.801)" fill="#ce8b2b"/>
  <path id="Path_7070" data-name="Path 7070" d="M38.322,16.981v4.472H10V16.981A2.981,2.981,0,0,1,12.981,14h22.36a2.981,2.981,0,0,1,2.981,2.981" transform="translate(-10 -11.764)" fill="#bf8128"/>
  <path id="Path_7071" data-name="Path 7071" d="M64.472,18.236A2.236,2.236,0,1,1,62.236,16a2.237,2.237,0,0,1,2.236,2.236" transform="translate(-41.367 -13.019)" fill="#fff"/>
  <path id="Path_7072" data-name="Path 7072" d="M28.472,18.236A2.236,2.236,0,1,1,26.236,16a2.237,2.237,0,0,1,2.236,2.236" transform="translate(-18.783 -13.019)" fill="#fff"/>
  <path id="Path_7073" data-name="Path 7073" d="M63.491,8A1.491,1.491,0,0,0,62,9.491v3.727a1.491,1.491,0,1,0,2.981,0V9.491A1.492,1.492,0,0,0,63.491,8" transform="translate(-42.622 -8)" fill="#aa4230"/>
  <path id="Path_7074" data-name="Path 7074" d="M27.491,8A1.491,1.491,0,0,0,26,9.491v3.727a1.491,1.491,0,1,0,2.981,0V9.491A1.492,1.492,0,0,0,27.491,8" transform="translate(-20.037 -8)" fill="#aa4230"/>
  <path id="Path_7075" data-name="Path 7075" d="M38.632,44l1.46,3.776,4.105.205L41,50.522l1.111,3.913-3.476-2.2-3.479,2.2,1.114-3.913-3.2-2.54,4.1-.205Z" transform="translate(-24.47 -30.584)" fill="#fff"/>
  <path id="Path_7076" data-name="Path 7076" d="M70.906,63.453A7.453,7.453,0,1,1,63.453,56a7.475,7.475,0,0,1,7.453,7.453" transform="translate(-38.858 -38.112)" fill="#aa4230"/>
  <path id="Path_7077" data-name="Path 7077" d="M72.435,67.217A5.217,5.217,0,1,1,67.217,62a5.185,5.185,0,0,1,5.217,5.217" transform="translate(-42.622 -41.876)" fill="#eee"/>
  <path id="Path_7078" data-name="Path 7078" d="M77.4,72.037l-2.162-2.162v-.148a1.191,1.191,0,0,0-.373-.82V66H73.373v2.907a1.191,1.191,0,0,0-.373.82,1.145,1.145,0,0,0,1.118,1.118h.074l2.162,2.162Z" transform="translate(-49.522 -44.386)" fill="#aa4230"/>
</svg>
