<svg id="surface6" xmlns="http://www.w3.org/2000/svg" width="29.813" height="22.579" viewBox="0 0 29.813 22.579">
  <path id="Path_7059" data-name="Path 7059" d="M32.447,34.819,24.025,26.4l1.863-1.416L24.4,23.491H14.335L8,22V33.925l4.4.745,8.944,9.092a1.475,1.475,0,0,0,2.086-2.086l-.074-.074a.37.37,0,0,1,.523-.523l.6.6a1.476,1.476,0,0,0,2.088-2.088l-.224-.223a.37.37,0,1,1,.523-.523l.745.745A1.475,1.475,0,1,0,29.689,37.5l-.223-.224a.368.368,0,1,1,.521-.521l.224.223a1.439,1.439,0,0,0,2.086,0A1.42,1.42,0,0,0,32.447,34.819Z" transform="translate(-8 -21.632)" fill="#ce8b2b"/>
  <path id="Path_7060" data-name="Path 7060" d="M38.691,27.269l-3.5,1.341A5.275,5.275,0,0,1,29.3,27.269a.649.649,0,0,1,.223-1.044l9.914-4.845a3.569,3.569,0,0,1,3.652.3l.3.223a3.649,3.649,0,0,0,2.907.523l4.77-1.044V33.306l-4.4.745-.6.6Z" transform="translate(-21.25 -21.012)" fill="#aa4230"/>
  <path id="Path_7061" data-name="Path 7061" d="M35.246,72.855a1.441,1.441,0,0,0,2.088,0l.521-.521a1.476,1.476,0,0,0-2.088-2.088l-.521.521A1.441,1.441,0,0,0,35.246,72.855Z" transform="translate(-24.812 -51.618)" fill="#aa4230"/>
  <path id="Path_7062" data-name="Path 7062" d="M29.541,67.255a1.441,1.441,0,0,0,2.088,0l.521-.521a1.476,1.476,0,1,0-2.086-2.088l-.523.523A1.586,1.586,0,0,0,29.541,67.255Z" transform="translate(-21.268 -48.106)" fill="#aa4230"/>
  <path id="Path_7063" data-name="Path 7063" d="M23.848,61.656a1.441,1.441,0,0,0,2.086,0l.523-.523a1.476,1.476,0,1,0-2.088-2.086l-.521.521A1.44,1.44,0,0,0,23.848,61.656Z" transform="translate(-17.661 -44.592)" fill="#aa4230"/>
  <path id="Path_7064" data-name="Path 7064" d="M18.246,55.855a1.441,1.441,0,0,0,2.088,0l.521-.521a1.476,1.476,0,0,0-2.088-2.088l-.521.521A1.441,1.441,0,0,0,18.246,55.855Z" transform="translate(-14.147 -40.953)" fill="#aa4230"/>
</svg>
