<svg id="surface1" xmlns="http://www.w3.org/2000/svg" width="9.635" height="12.385" viewBox="0 0 9.635 12.385">
  <path id="Path_7224" data-name="Path 7224" d="M12.032,5.969c-.032,0-.067.005-.1.011H10.669a.687.687,0,1,0,0,1.374h.687v.923A3.437,3.437,0,0,0,12.362,10.7l1.457,1.457-1.457,1.457a3.437,3.437,0,0,0-1.006,2.428v.923h-.687a.687.687,0,1,0,0,1.374h1.258a.62.62,0,0,0,.223,0h5.273a.62.62,0,0,0,.223,0h1.266a.687.687,0,1,0,0-1.374h-.687v-.923a3.437,3.437,0,0,0-1.006-2.428l-1.457-1.457L17.219,10.7a3.437,3.437,0,0,0,1.006-2.428V7.353h.687a.687.687,0,1,0,0-1.374H17.653a.621.621,0,0,0-.223,0H12.15A.878.878,0,0,0,12.032,5.969Zm.7,1.385h4.121v.923a2.055,2.055,0,0,1-.343,1.138H13.073a2.055,2.055,0,0,1-.343-1.138Zm2.061,5.78,1.457,1.457a2.064,2.064,0,0,1,.6,1.457v.923h-.824a2.4,2.4,0,0,0-.569-.877.962.962,0,0,0-1.336,0,2.4,2.4,0,0,0-.569.877H12.73v-.923a2.064,2.064,0,0,1,.6-1.457Z" transform="translate(-9.973 -5.969)" fill="#fff"/>
</svg>
