<svg id="surface1" xmlns="http://www.w3.org/2000/svg" width="27.577" height="28.323" viewBox="0 0 27.577 28.323">
  <path id="Path_7097" data-name="Path 7097" d="M31.379,30V50.869h-16.4A2.991,2.991,0,0,1,12,47.888V30Z" transform="translate(-12 -22.547)" fill="#ce8b2b"/>
  <path id="Path_7098" data-name="Path 7098" d="M22.981,10V35.341A2.991,2.991,0,0,1,20,38.323H41.615A2.991,2.991,0,0,0,44.6,35.341V10Z" transform="translate(-17.019 -10)" fill="#aa4230"/>
  <path id="Path_7099" data-name="Path 7099" d="M40,20H53.416v2.981H40Z" transform="translate(-29.565 -16.273)" fill="#fff"/>
  <path id="Path_7100" data-name="Path 7100" d="M40,34h5.963v1.491H40Z" transform="translate(-29.565 -25.056)" fill="#fff"/>
  <path id="Path_7101" data-name="Path 7101" d="M60,34h5.963v1.491H60Z" transform="translate(-42.112 -25.056)" fill="#fff"/>
  <path id="Path_7102" data-name="Path 7102" d="M40,42h5.963v1.491H40Z" transform="translate(-29.565 -30.075)" fill="#fff"/>
  <path id="Path_7103" data-name="Path 7103" d="M60,42h5.963v1.491H60Z" transform="translate(-42.112 -30.075)" fill="#fff"/>
  <path id="Path_7104" data-name="Path 7104" d="M40,50h5.963v1.491H40Z" transform="translate(-29.565 -35.093)" fill="#fff"/>
  <path id="Path_7105" data-name="Path 7105" d="M60,50h5.963v1.491H60Z" transform="translate(-42.112 -35.093)" fill="#fff"/>
  <path id="Path_7106" data-name="Path 7106" d="M40,58h5.963v1.491H40Z" transform="translate(-29.565 -40.112)" fill="#fff"/>
  <path id="Path_7107" data-name="Path 7107" d="M60,58h5.963v1.491H60Z" transform="translate(-42.112 -40.112)" fill="#fff"/>
  <path id="Path_7108" data-name="Path 7108" d="M40,66h5.963v1.491H40Z" transform="translate(-29.565 -45.131)" fill="#fff"/>
  <path id="Path_7109" data-name="Path 7109" d="M60,66h5.963v1.491H60Z" transform="translate(-42.112 -45.131)" fill="#fff"/>
  <path id="Path_7110" data-name="Path 7110" d="M40,74h5.963v1.491H40Z" transform="translate(-29.565 -50.149)" fill="#fff"/>
  <path id="Path_7111" data-name="Path 7111" d="M60,74h5.963v1.491H60Z" transform="translate(-42.112 -50.149)" fill="#fff"/>
</svg>
