<svg id="icons8_detective_1" xmlns="http://www.w3.org/2000/svg" width="20.788" height="20.602" viewBox="0 0 20.788 20.602">
  <path id="Path_5388" data-name="Path 5388" d="M7.03,21.932a.593.593,0,0,0,.437-.186l1.685-1.663a.6.6,0,0,0,.186-.437.567.567,0,0,0-.186-.437L5.366,15.466a.636.636,0,0,0-.871,0L2.811,17.129a.6.6,0,0,0-.186.437A.677.677,0,0,0,2.79,18l3.785,3.742A.632.632,0,0,0,7.03,21.932Zm.793-2.287-.793.788-2.91-2.867.793-.788Z" transform="translate(11.45 -1.33)" fill="#ce8b2b"/>
  <path id="Path_5391" data-name="Path 5391" d="M14.492,19.663a8.482,8.482,0,1,0,0-16.964,8.483,8.483,0,1,0,0,16.964Zm0-15.7A7.225,7.225,0,1,1,7.173,11.2,7.283,7.283,0,0,1,14.492,3.968Z" transform="translate(-5.926 -2.699)" fill="#ce8b2b"/>
  <path id="Path_5392" data-name="Path 5392" d="M9.325,16.759a.611.611,0,0,0-.165-.394L7.81,15.035a.544.544,0,1,0-.771.767L8.39,17.135a.554.554,0,0,0,.771,0A.431.431,0,0,0,9.325,16.759Z" transform="translate(6.742 -1.375)" fill="#ce8b2b"/>
</svg>
