<svg id="surface3" xmlns="http://www.w3.org/2000/svg" width="29.813" height="28.174" viewBox="0 0 29.813 28.174">
  <path id="Path_7091" data-name="Path 7091" d="M18.286,36.2,12.77,41.641,9.639,38.585,8,40.224l4.77,4.77,7.155-7.155Z" transform="translate(-8 -26.51)" fill="#ce8b2b"/>
  <path id="Path_7092" data-name="Path 7092" d="M18.286,10.2,12.77,15.641,9.639,12.585,8,14.224l4.77,4.77,7.155-7.155Z" transform="translate(-8 -10.199)" fill="#ce8b2b"/>
  <path id="Path_7093" data-name="Path 7093" d="M18.286,62.2,12.77,67.641,9.639,64.585,8,66.224l4.77,4.77,7.155-7.155Z" transform="translate(-8 -42.821)" fill="#ce8b2b"/>
  <path id="Path_7094" data-name="Path 7094" d="M48,44H62.907v2.981H48Z" transform="translate(-33.093 -31.404)" fill="#aa4230"/>
  <path id="Path_7095" data-name="Path 7095" d="M48,18H62.907v2.981H48Z" transform="translate(-33.093 -15.093)" fill="#aa4230"/>
  <path id="Path_7096" data-name="Path 7096" d="M48,70H62.907v2.981H48Z" transform="translate(-33.093 -47.714)" fill="#aa4230"/>
</svg>
