<svg xmlns="http://www.w3.org/2000/svg" width="1914.459" height="84.324" viewBox="0 0 1914.459 84.324">
  <g id="Group_3950" data-name="Group 3950" transform="translate(-753 -815.147)">
    <g id="Group_3950-2" data-name="Group 3950">
      <path id="Path_4" data-name="Path 4" d="M231.286,1159.979h-21.84a.179.179,0,0,0-.179.179v18.994a.179.179,0,0,1-.179.179h-3.626a.179.179,0,0,1-.179-.179v-11.974a.179.179,0,0,0-.179-.179H200.15a.179.179,0,0,1-.179-.179v-9.508a.179.179,0,0,0-.179-.179H188.956a.179.179,0,0,1-.179-.179v-9.508a.179.179,0,0,0-.179-.179h-21.84a.179.179,0,0,0-.179.179v19.374a.179.179,0,0,1-.179.179H156.133a.179.179,0,0,1-.179-.179v-25.635a.179.179,0,0,0-.179-.179H140.2a.179.179,0,0,0-.179.179v8.749a.179.179,0,0,1-.179.179H124.259a.179.179,0,0,0-.179.179v17.666a.179.179,0,0,1-.179.179H117.24a.179.179,0,0,1-.179-.179v-1.331a.537.537,0,0,1,.216-.382l.69-.53a.559.559,0,0,0,.233-.382v-.6a.564.564,0,0,0-.569-.5.564.564,0,0,1-.569-.5v-.077a.536.536,0,0,1,.243-.4l.636-.421a.557.557,0,0,0,.26-.4v-.865a.537.537,0,0,0-.181-.352l-.757-.7a.562.562,0,0,1-.2-.352v-.91a.538.538,0,0,1,.187-.356l.831-.84a.473.473,0,0,0,.121-.356v-.357a.6.6,0,0,0-.6-.6h-.364a.179.179,0,0,1-.179-.179V1155.5a2.411,2.411,0,0,0-.516-1.547l-.306-.389a.179.179,0,0,0-.285,0l-.284.385a2.4,2.4,0,0,0-.507,1.547v1.073a.179.179,0,0,1-.179.179h-.378a.773.773,0,0,0-.771.771v.181a.553.553,0,0,0,.2.356l.921.84a.571.571,0,0,1,.21.356v.91a.538.538,0,0,1-.182.352l-.757.7a.561.561,0,0,0-.2.352v.865a.534.534,0,0,0,.242.4l.637.421a.558.558,0,0,1,.26.4v.077a.564.564,0,0,1-.569.5.564.564,0,0,0-.569.5v.6a.535.535,0,0,0,.214.382l.691.53a.56.56,0,0,1,.233.382v1.331a.179.179,0,0,1-.179.179h-6.662a.179.179,0,0,1-.179-.179v-17.666a.179.179,0,0,0-.179-.179H92.385a.179.179,0,0,0-.179.179v9.508a.179.179,0,0,1-.179.179H76.449a.179.179,0,0,0-.179.179v13.682a.179.179,0,0,1-.179.179H69.808a.179.179,0,0,1-.179-.179v-8.424a1.886,1.886,0,0,1,.679-1.449l2.057-1.715a1.886,1.886,0,0,0,.679-1.449v-1.788a1.871,1.871,0,0,0-1.774-1.883,1.707,1.707,0,0,1-1.641-1.706v-.174a1.886,1.886,0,0,1,.782-1.529l1.851-1.337a1.886,1.886,0,0,0,.782-1.529v-2.807a1.887,1.887,0,0,0-.552-1.334l-2.31-2.31a1.887,1.887,0,0,1-.552-1.334v-2.977a1.887,1.887,0,0,1,.569-1.35l2.847-2.779a1.886,1.886,0,0,0,.569-1.35v-1.588a1.887,1.887,0,0,0-1.886-1.886H69.808a.179.179,0,0,1-.179-.179v-3.781a8.574,8.574,0,0,0-1.938-5.428L66.258,1120a.179.179,0,0,0-.277,0l-1.434,1.752a8.574,8.574,0,0,0-1.938,5.428v3.781a.179.179,0,0,1-.179.179H60.512a1.887,1.887,0,0,0-1.886,1.886v1.588a1.886,1.886,0,0,0,.569,1.35l2.847,2.779a1.887,1.887,0,0,1,.569,1.35v2.977a1.887,1.887,0,0,1-.552,1.334l-2.31,2.31a1.887,1.887,0,0,0-.552,1.334v2.807a1.886,1.886,0,0,0,.782,1.529l1.851,1.337a1.886,1.886,0,0,1,.782,1.529h0a1.871,1.871,0,0,1-1.774,1.883,1.707,1.707,0,0,0-1.641,1.706v1.962a1.886,1.886,0,0,0,.679,1.449l2.057,1.715a1.886,1.886,0,0,1,.679,1.449v8.424a.179.179,0,0,1-.179.179h-3.97a.178.178,0,0,1-.178-.177,22.2,22.2,0,0,0-44.392,0,.178.178,0,0,1-.178.177H10.045a.179.179,0,0,1-.179-.179v-2.35a.537.537,0,0,1,.216-.382l.69-.53A.559.559,0,0,0,11,1170.2v-.6a.564.564,0,0,0-.569-.5.564.564,0,0,1-.569-.5v-.077a.536.536,0,0,1,.243-.4l.636-.42a.556.556,0,0,0,.26-.4v-.865a.537.537,0,0,0-.181-.352l-.757-.7a.563.563,0,0,1-.2-.351v-.911a.539.539,0,0,1,.187-.356l.831-.84a.473.473,0,0,0,.121-.356v-.357a.717.717,0,0,0-.715-.714h-.245a.179.179,0,0,1-.179-.179v-.954a2.41,2.41,0,0,0-.516-1.547l-.306-.389a.179.179,0,0,0-.285,0l-.284.385a2.4,2.4,0,0,0-.507,1.547v.954a.179.179,0,0,1-.179.179H7.411a.773.773,0,0,0-.771.771v.3a.553.553,0,0,0,.2.356l.921.84a.572.572,0,0,1,.21.356v.911a.539.539,0,0,1-.182.351l-.757.7a.561.561,0,0,0-.2.352v.865a.534.534,0,0,0,.242.4l.637.42a.558.558,0,0,1,.26.4v.077a.564.564,0,0,1-.569.5.564.564,0,0,0-.569.5v.6a.535.535,0,0,0,.214.382l.691.53a.56.56,0,0,1,.233.382v2.35a.179.179,0,0,1-.179.179H.179A.179.179,0,0,0,0,1174.2l.179,29.7a.179.179,0,0,0,.179.179h205.1l1708.818.179a.179.179,0,0,0,.179-.179l-.179-24.391a.179.179,0,0,0-.179-.179l-1682.457-.179a.179.179,0,0,1-.179-.179v-18.994A.179.179,0,0,0,231.286,1159.979Z" transform="translate(753 -304.788)" fill="#aa4230"/>
    </g>
    <g id="Group_2" data-name="Group 2" transform="translate(761.524 829.523)">
      <rect id="Rectangle_220" data-name="Rectangle 220" width="2.213" height="4.29" rx="1.107" transform="translate(56.313)" fill="#fff"/>
      <rect id="Rectangle_221" data-name="Rectangle 221" width="2.213" height="4.29" rx="1.107" transform="translate(56.313 13.228)" fill="#fff"/>
      <rect id="Rectangle_222" data-name="Rectangle 222" width="0.783" height="1.517" rx="0.391" transform="translate(0 34.114)" fill="#fff"/>
      <rect id="Rectangle_223" data-name="Rectangle 223" width="0.783" height="1.517" rx="0.391" transform="translate(0 29.07)" fill="#fff"/>
      <rect id="Rectangle_224" data-name="Rectangle 224" width="0.783" height="1.517" rx="0.391" transform="translate(107.165 29.871)" fill="#fff"/>
      <rect id="Rectangle_225" data-name="Rectangle 225" width="0.783" height="1.517" rx="0.391" transform="translate(107.165 24.827)" fill="#fff"/>
      <rect id="Rectangle_226" data-name="Rectangle 226" width="3.795" height="3.795" transform="translate(137.389 12.279)" fill="#fff"/>
      <rect id="Rectangle_227" data-name="Rectangle 227" width="3.795" height="3.795" transform="translate(137.389 23.853)" fill="#fff"/>
      <rect id="Rectangle_228" data-name="Rectangle 228" width="3.795" height="3.795" transform="translate(121.452 23.853)" fill="#fff"/>
      <rect id="Rectangle_229" data-name="Rectangle 229" width="3.795" height="3.795" transform="translate(89.578 21.73)" fill="#fff"/>
      <rect id="Rectangle_230" data-name="Rectangle 230" width="3.795" height="3.795" transform="translate(89.578 33.303)" fill="#fff"/>
      <rect id="Rectangle_231" data-name="Rectangle 231" width="3.795" height="3.795" transform="translate(73.641 33.303)" fill="#fff"/>
      <rect id="Rectangle_232" data-name="Rectangle 232" width="3.795" height="3.795" transform="translate(167.744 21.73)" fill="#fff"/>
      <rect id="Rectangle_233" data-name="Rectangle 233" width="3.795" height="3.795" transform="translate(167.744 33.303)" fill="#fff"/>
      <rect id="Rectangle_234" data-name="Rectangle 234" width="3.795" height="3.795" transform="translate(183.777 27.647)" fill="#fff"/>
      <rect id="Rectangle_235" data-name="Rectangle 235" width="3.795" height="3.795" transform="translate(214.955 29.924)" fill="#fff"/>
      <rect id="Rectangle_236" data-name="Rectangle 236" width="3.795" height="3.795" transform="translate(205.848 29.924)" fill="#fff"/>
      <rect id="Rectangle_237" data-name="Rectangle 237" width="3.795" height="3.795" transform="translate(214.955 41.274)" fill="#fff"/>
      <rect id="Rectangle_238" data-name="Rectangle 238" width="3.795" height="3.795" transform="translate(205.848 41.274)" fill="#fff"/>
    </g>
  </g>
</svg>
